<mxfile host="app.diagrams.net" modified="2020-12-03T13:37:30.799Z" agent="5.0 (Macintosh; Intel Mac OS X 10_15_3) AppleWebKit/537.36 (KHTML, like Gecko) Chrome/87.0.4280.67 Safari/537.36" etag="mAL1S3aQJ6LVYwCfU2Hi" version="13.10.4" type="github" pages="5">
  <diagram id="svwzPPDEEpOVP8AQ4CcS" name="业务架构">
    <mxGraphModel dx="828" dy="461" grid="1" gridSize="10" guides="1" tooltips="1" connect="1" arrows="1" fold="1" page="1" pageScale="1" pageWidth="827" pageHeight="1169" math="0" shadow="0">
      <root>
        <mxCell id="0" />
        <mxCell id="1" parent="0" />
        <mxCell id="b3yf6rmu9NAUxcdTz7bX-2" value="" style="rounded=0;whiteSpace=wrap;html=1;fontSize=18;strokeColor=#56517e;fillColor=#C9E0E2;" parent="1" vertex="1">
          <mxGeometry x="60" y="48" width="760" height="370" as="geometry" />
        </mxCell>
        <mxCell id="b3yf6rmu9NAUxcdTz7bX-36" value="" style="rounded=1;whiteSpace=wrap;html=1;fontSize=14;dashed=1;fillColor=none;strokeColor=#FFFFFF;" parent="1" vertex="1">
          <mxGeometry x="689" y="107" width="110" height="203" as="geometry" />
        </mxCell>
        <mxCell id="b3yf6rmu9NAUxcdTz7bX-35" value="" style="rounded=1;whiteSpace=wrap;html=1;fontSize=14;dashed=1;fillColor=none;strokeColor=#FFFFFF;strokeWidth=1;" parent="1" vertex="1">
          <mxGeometry x="545" y="107" width="110" height="253" as="geometry" />
        </mxCell>
        <mxCell id="b3yf6rmu9NAUxcdTz7bX-34" value="" style="rounded=1;whiteSpace=wrap;html=1;fontSize=14;dashed=1;fillColor=none;strokeColor=#FFFFFF;" parent="1" vertex="1">
          <mxGeometry x="370" y="107" width="110" height="301" as="geometry" />
        </mxCell>
        <mxCell id="b3yf6rmu9NAUxcdTz7bX-33" value="" style="rounded=1;whiteSpace=wrap;html=1;fontSize=14;dashed=1;fillColor=none;strokeColor=#FFFFFF;" parent="1" vertex="1">
          <mxGeometry x="210" y="107" width="110" height="263" as="geometry" />
        </mxCell>
        <mxCell id="b3yf6rmu9NAUxcdTz7bX-32" value="" style="rounded=1;whiteSpace=wrap;html=1;fontSize=14;dashed=1;fillColor=none;strokeColor=#FFFFFF;" parent="1" vertex="1">
          <mxGeometry x="85" y="107" width="110" height="163" as="geometry" />
        </mxCell>
        <mxCell id="b3yf6rmu9NAUxcdTz7bX-1" value="智&lt;br style=&quot;font-size: 18px;&quot;&gt;能&lt;br style=&quot;font-size: 18px;&quot;&gt;满&lt;br style=&quot;font-size: 18px;&quot;&gt;减&lt;br style=&quot;font-size: 18px;&quot;&gt;3.0" style="rounded=1;whiteSpace=wrap;html=1;fontSize=18;fillColor=#1ba1e2;strokeColor=#006EAF;fontColor=#ffffff;" parent="1" vertex="1">
          <mxGeometry x="10" y="48" width="40" height="370" as="geometry" />
        </mxCell>
        <mxCell id="b3yf6rmu9NAUxcdTz7bX-3" value="活动创建" style="html=1;shadow=0;dashed=0;align=center;verticalAlign=middle;shape=mxgraph.arrows2.arrow;dy=0;dx=23.73;notch=21.27;fontSize=14;fillColor=#fa6800;strokeColor=#C73500;fontColor=#ffffff;" parent="1" vertex="1">
          <mxGeometry x="210" y="58" width="120" height="40" as="geometry" />
        </mxCell>
        <mxCell id="b3yf6rmu9NAUxcdTz7bX-4" value="导购、交易、履约" style="html=1;shadow=0;dashed=0;align=center;verticalAlign=middle;shape=mxgraph.arrows2.arrow;dy=0;dx=23.73;notch=21.27;fontSize=14;fillColor=#f0a30a;strokeColor=#BD7000;fontColor=#ffffff;" parent="1" vertex="1">
          <mxGeometry x="340" y="58" width="170" height="40" as="geometry" />
        </mxCell>
        <mxCell id="b3yf6rmu9NAUxcdTz7bX-5" value="预算、清结算、账户" style="html=1;shadow=0;dashed=0;align=center;verticalAlign=middle;shape=mxgraph.arrows2.arrow;dy=0;dx=23.73;notch=21.27;fontSize=14;fillColor=#e3c800;strokeColor=#B09500;fontColor=#ffffff;" parent="1" vertex="1">
          <mxGeometry x="520" y="58" width="160" height="40" as="geometry" />
        </mxCell>
        <mxCell id="b3yf6rmu9NAUxcdTz7bX-6" value="商业化" style="html=1;shadow=0;dashed=0;align=center;verticalAlign=middle;shape=mxgraph.arrows2.arrow;dy=0;dx=23.73;notch=21.27;fontSize=14;fillColor=#a0522d;strokeColor=#6D1F00;fontColor=#ffffff;" parent="1" vertex="1">
          <mxGeometry x="685" y="58" width="120" height="40" as="geometry" />
        </mxCell>
        <mxCell id="b3yf6rmu9NAUxcdTz7bX-7" value="算法锚点" style="rounded=1;whiteSpace=wrap;html=1;fontSize=14;fillColor=#ffcd28;strokeColor=#d79b00;gradientColor=#ffa500;" parent="1" vertex="1">
          <mxGeometry x="220" y="118" width="90" height="30" as="geometry" />
        </mxCell>
        <mxCell id="b3yf6rmu9NAUxcdTz7bX-8" value="津贴计算" style="rounded=1;whiteSpace=wrap;html=1;fontSize=14;gradientColor=#ffa500;fillColor=#ffcd28;strokeColor=#d79b00;" parent="1" vertex="1">
          <mxGeometry x="220" y="168" width="90" height="30" as="geometry" />
        </mxCell>
        <mxCell id="b3yf6rmu9NAUxcdTz7bX-9" value="协议签署" style="rounded=1;whiteSpace=wrap;html=1;fontSize=14;gradientColor=#ffa500;fillColor=#ffcd28;strokeColor=#d79b00;" parent="1" vertex="1">
          <mxGeometry x="220" y="218" width="90" height="30" as="geometry" />
        </mxCell>
        <mxCell id="b3yf6rmu9NAUxcdTz7bX-10" value="3.0打标" style="rounded=1;whiteSpace=wrap;html=1;fontSize=14;gradientColor=#ffa500;fillColor=#ffcd28;strokeColor=#d79b00;" parent="1" vertex="1">
          <mxGeometry x="220" y="268" width="90" height="30" as="geometry" />
        </mxCell>
        <mxCell id="b3yf6rmu9NAUxcdTz7bX-11" value="上活动" style="rounded=1;whiteSpace=wrap;html=1;fontSize=14;gradientColor=#ffa500;fillColor=#ffcd28;strokeColor=#d79b00;" parent="1" vertex="1">
          <mxGeometry x="220" y="318" width="90" height="30" as="geometry" />
        </mxCell>
        <mxCell id="b3yf6rmu9NAUxcdTz7bX-13" value="活动查询" style="rounded=1;whiteSpace=wrap;html=1;fontSize=14;" parent="1" vertex="1">
          <mxGeometry x="380" y="118" width="90" height="30" as="geometry" />
        </mxCell>
        <mxCell id="b3yf6rmu9NAUxcdTz7bX-14" value="算价" style="rounded=1;whiteSpace=wrap;html=1;fontSize=14;gradientColor=#ffa500;fillColor=#ffcd28;strokeColor=#d79b00;" parent="1" vertex="1">
          <mxGeometry x="380" y="168" width="90" height="30" as="geometry" />
        </mxCell>
        <mxCell id="b3yf6rmu9NAUxcdTz7bX-15" value="加购" style="rounded=1;whiteSpace=wrap;html=1;fontSize=14;" parent="1" vertex="1">
          <mxGeometry x="380" y="218" width="90" height="30" as="geometry" />
        </mxCell>
        <mxCell id="b3yf6rmu9NAUxcdTz7bX-16" value="创单" style="rounded=1;whiteSpace=wrap;html=1;fontSize=14;" parent="1" vertex="1">
          <mxGeometry x="380" y="268" width="90" height="30" as="geometry" />
        </mxCell>
        <mxCell id="b3yf6rmu9NAUxcdTz7bX-17" value="预算扣减" style="rounded=1;whiteSpace=wrap;html=1;fontSize=14;" parent="1" vertex="1">
          <mxGeometry x="556" y="118" width="90" height="30" as="geometry" />
        </mxCell>
        <mxCell id="b3yf6rmu9NAUxcdTz7bX-18" value="订单结算" style="rounded=1;whiteSpace=wrap;html=1;fontSize=14;" parent="1" vertex="1">
          <mxGeometry x="556" y="168" width="90" height="30" as="geometry" />
        </mxCell>
        <mxCell id="b3yf6rmu9NAUxcdTz7bX-19" value="凭证" style="rounded=1;whiteSpace=wrap;html=1;fontSize=14;" parent="1" vertex="1">
          <mxGeometry x="556" y="218" width="90" height="30" as="geometry" />
        </mxCell>
        <mxCell id="b3yf6rmu9NAUxcdTz7bX-20" value="清分" style="rounded=1;whiteSpace=wrap;html=1;fontSize=14;" parent="1" vertex="1">
          <mxGeometry x="556" y="268" width="90" height="30" as="geometry" />
        </mxCell>
        <mxCell id="b3yf6rmu9NAUxcdTz7bX-23" value="支付" style="rounded=1;whiteSpace=wrap;html=1;fontSize=14;" parent="1" vertex="1">
          <mxGeometry x="380" y="318" width="90" height="30" as="geometry" />
        </mxCell>
        <mxCell id="b3yf6rmu9NAUxcdTz7bX-24" value="履约配送" style="rounded=1;whiteSpace=wrap;html=1;fontSize=14;" parent="1" vertex="1">
          <mxGeometry x="380" y="368" width="90" height="30" as="geometry" />
        </mxCell>
        <mxCell id="b3yf6rmu9NAUxcdTz7bX-25" value="服务开通" style="html=1;shadow=0;dashed=0;align=center;verticalAlign=middle;shape=mxgraph.arrows2.arrow;dy=0;dx=23.73;notch=21.27;fontSize=14;fillColor=#e51400;strokeColor=#B20000;fontColor=#ffffff;" parent="1" vertex="1">
          <mxGeometry x="80" y="58" width="120" height="40" as="geometry" />
        </mxCell>
        <mxCell id="b3yf6rmu9NAUxcdTz7bX-26" value="灰度名单" style="rounded=1;whiteSpace=wrap;html=1;fontSize=14;gradientColor=#ffa500;fillColor=#ffcd28;strokeColor=#d79b00;" parent="1" vertex="1">
          <mxGeometry x="95" y="118" width="90" height="30" as="geometry" />
        </mxCell>
        <mxCell id="b3yf6rmu9NAUxcdTz7bX-28" value="引导提示" style="rounded=1;whiteSpace=wrap;html=1;fontSize=14;gradientColor=#ffa500;fillColor=#ffcd28;strokeColor=#d79b00;" parent="1" vertex="1">
          <mxGeometry x="95" y="167.5" width="90" height="30" as="geometry" />
        </mxCell>
        <mxCell id="b3yf6rmu9NAUxcdTz7bX-29" value="配置结算关系" style="rounded=1;whiteSpace=wrap;html=1;fontSize=14;" parent="1" vertex="1">
          <mxGeometry x="700" y="118" width="90" height="30" as="geometry" />
        </mxCell>
        <mxCell id="b3yf6rmu9NAUxcdTz7bX-30" value="开通账户" style="rounded=1;whiteSpace=wrap;html=1;fontSize=14;gradientColor=#ffa500;fillColor=#ffcd28;strokeColor=#d79b00;" parent="1" vertex="1">
          <mxGeometry x="700" y="168" width="90" height="30" as="geometry" />
        </mxCell>
        <mxCell id="b3yf6rmu9NAUxcdTz7bX-31" value="CPC返现" style="rounded=1;whiteSpace=wrap;html=1;fontSize=14;gradientColor=#ffa500;fillColor=#ffcd28;strokeColor=#d79b00;" parent="1" vertex="1">
          <mxGeometry x="700" y="218" width="90" height="30" as="geometry" />
        </mxCell>
        <mxCell id="b3yf6rmu9NAUxcdTz7bX-37" value="" style="rounded=0;whiteSpace=wrap;html=1;fontSize=14;gradientColor=#ffa500;fillColor=#ffcd28;strokeColor=#d79b00;" parent="1" vertex="1">
          <mxGeometry x="696" y="10" width="20" height="20" as="geometry" />
        </mxCell>
        <mxCell id="b3yf6rmu9NAUxcdTz7bX-38" value="变化点" style="text;html=1;align=center;verticalAlign=middle;resizable=0;points=[];autosize=1;fontSize=14;" parent="1" vertex="1">
          <mxGeometry x="719" y="10" width="60" height="20" as="geometry" />
        </mxCell>
        <mxCell id="b3yf6rmu9NAUxcdTz7bX-39" value="" style="rounded=0;whiteSpace=wrap;html=1;fontSize=14;" parent="1" vertex="1">
          <mxGeometry x="590" y="10" width="20" height="20" as="geometry" />
        </mxCell>
        <mxCell id="b3yf6rmu9NAUxcdTz7bX-40" value="现有能力" style="text;html=1;align=center;verticalAlign=middle;resizable=0;points=[];autosize=1;fontSize=14;" parent="1" vertex="1">
          <mxGeometry x="611" y="10" width="70" height="20" as="geometry" />
        </mxCell>
        <mxCell id="4Q9pyRew29hV-GlrknYJ-1" value="返CPC" style="rounded=1;whiteSpace=wrap;html=1;fontSize=14;gradientColor=#ffa500;fillColor=#ffcd28;strokeColor=#d79b00;" vertex="1" parent="1">
          <mxGeometry x="555" y="318" width="90" height="30" as="geometry" />
        </mxCell>
        <mxCell id="jsjzfROdjH0b554mfazz-1" value="开通智能满减" style="rounded=1;whiteSpace=wrap;html=1;fontSize=14;gradientColor=#ffa500;fillColor=#ffcd28;strokeColor=#d79b00;" vertex="1" parent="1">
          <mxGeometry x="95" y="218" width="90" height="30" as="geometry" />
        </mxCell>
        <mxCell id="Edufd0Z_FbtpLkKPrjW3-1" value="开通广告服务" style="rounded=1;whiteSpace=wrap;html=1;fontSize=14;gradientColor=#ffa500;fillColor=#ffcd28;strokeColor=#d79b00;" vertex="1" parent="1">
          <mxGeometry x="700" y="268" width="90" height="30" as="geometry" />
        </mxCell>
      </root>
    </mxGraphModel>
  </diagram>
  <diagram id="BrbKqYzhCe-ZeaSh82zv" name="集成架构">
    <mxGraphModel dx="809" dy="461" grid="1" gridSize="10" guides="1" tooltips="1" connect="1" arrows="1" fold="1" page="1" pageScale="1" pageWidth="827" pageHeight="1169" math="0" shadow="0">
      <root>
        <mxCell id="GoxW9i7ttROze6nMOIQV-0" />
        <mxCell id="GoxW9i7ttROze6nMOIQV-1" parent="GoxW9i7ttROze6nMOIQV-0" />
        <mxCell id="KyV_epHE1-PLem4yUeAW-1" value="营销中台" style="rounded=0;whiteSpace=wrap;html=1;strokeWidth=1;fontSize=14;fontColor=#000000;align=left;dashed=1;verticalAlign=top;fontStyle=1" vertex="1" parent="GoxW9i7ttROze6nMOIQV-1">
          <mxGeometry x="40" y="305" width="550" height="90" as="geometry" />
        </mxCell>
        <mxCell id="KyV_epHE1-PLem4yUeAW-0" value="营销工具" style="rounded=0;whiteSpace=wrap;html=1;strokeWidth=1;fontSize=14;fontColor=#000000;align=left;dashed=1;verticalAlign=top;fontStyle=1" vertex="1" parent="GoxW9i7ttROze6nMOIQV-1">
          <mxGeometry x="40" y="205" width="550" height="90" as="geometry" />
        </mxCell>
        <mxCell id="YTMpu8_j2858IgFVY3_3-2" value="产品层" style="rounded=0;whiteSpace=wrap;html=1;strokeWidth=1;fontSize=14;fontColor=#000000;align=left;dashed=1;verticalAlign=top;fontStyle=1" vertex="1" parent="GoxW9i7ttROze6nMOIQV-1">
          <mxGeometry x="40" y="125" width="550" height="70" as="geometry" />
        </mxCell>
        <mxCell id="YTMpu8_j2858IgFVY3_3-1" value="Sopush/Httpizza" style="rounded=0;whiteSpace=wrap;html=1;strokeWidth=1;fontSize=14;align=center;fillColor=#b1ddf0;strokeColor=#10739e;" vertex="1" parent="GoxW9i7ttROze6nMOIQV-1">
          <mxGeometry x="40" y="95" width="550" height="20" as="geometry" />
        </mxCell>
        <mxCell id="YTMpu8_j2858IgFVY3_3-0" value="WEB" style="rounded=0;whiteSpace=wrap;html=1;strokeWidth=1;fontSize=14;fontColor=#000000;align=left;dashed=1;verticalAlign=top;fontStyle=1" vertex="1" parent="GoxW9i7ttROze6nMOIQV-1">
          <mxGeometry x="40" y="20" width="550" height="60" as="geometry" />
        </mxCell>
        <mxCell id="TbF9bN0-pzQNAajZCIpg-10" style="edgeStyle=orthogonalEdgeStyle;rounded=0;orthogonalLoop=1;jettySize=auto;html=1;exitX=0.5;exitY=1;exitDx=0;exitDy=0;entryX=0.5;entryY=0;entryDx=0;entryDy=0;" edge="1" parent="GoxW9i7ttROze6nMOIQV-1" source="TbF9bN0-pzQNAajZCIpg-5" target="TbF9bN0-pzQNAajZCIpg-8">
          <mxGeometry relative="1" as="geometry" />
        </mxCell>
        <mxCell id="TbF9bN0-pzQNAajZCIpg-5" value="Napos" style="rounded=1;whiteSpace=wrap;html=1;strokeWidth=1;fillColor=#1ba1e2;strokeColor=#006EAF;fontColor=#ffffff;" vertex="1" parent="GoxW9i7ttROze6nMOIQV-1">
          <mxGeometry x="160" y="35" width="110" height="30" as="geometry" />
        </mxCell>
        <mxCell id="TbF9bN0-pzQNAajZCIpg-11" style="edgeStyle=orthogonalEdgeStyle;rounded=0;orthogonalLoop=1;jettySize=auto;html=1;exitX=0.5;exitY=1;exitDx=0;exitDy=0;entryX=0.5;entryY=0;entryDx=0;entryDy=0;" edge="1" parent="GoxW9i7ttROze6nMOIQV-1" source="TbF9bN0-pzQNAajZCIpg-6" target="TbF9bN0-pzQNAajZCIpg-7">
          <mxGeometry relative="1" as="geometry" />
        </mxCell>
        <mxCell id="TbF9bN0-pzQNAajZCIpg-6" value="轩辕" style="rounded=1;whiteSpace=wrap;html=1;strokeWidth=1;fillColor=#fa6800;strokeColor=#C73500;fontColor=#ffffff;" vertex="1" parent="GoxW9i7ttROze6nMOIQV-1">
          <mxGeometry x="390" y="35" width="110" height="30" as="geometry" />
        </mxCell>
        <mxCell id="TbF9bN0-pzQNAajZCIpg-19" style="edgeStyle=orthogonalEdgeStyle;rounded=0;orthogonalLoop=1;jettySize=auto;html=1;exitX=0.5;exitY=1;exitDx=0;exitDy=0;entryX=0.5;entryY=0;entryDx=0;entryDy=0;fontSize=14;fontColor=#000000;" edge="1" parent="GoxW9i7ttROze6nMOIQV-1" source="TbF9bN0-pzQNAajZCIpg-7" target="TbF9bN0-pzQNAajZCIpg-9">
          <mxGeometry relative="1" as="geometry" />
        </mxCell>
        <mxCell id="TbF9bN0-pzQNAajZCIpg-7" value="play.valyria" style="rounded=1;whiteSpace=wrap;html=1;strokeWidth=1;fillColor=#60a917;strokeColor=#2D7600;fontColor=#ffffff;" vertex="1" parent="GoxW9i7ttROze6nMOIQV-1">
          <mxGeometry x="390" y="145" width="110" height="30" as="geometry" />
        </mxCell>
        <mxCell id="TbF9bN0-pzQNAajZCIpg-21" style="edgeStyle=orthogonalEdgeStyle;rounded=0;orthogonalLoop=1;jettySize=auto;html=1;exitX=0.5;exitY=1;exitDx=0;exitDy=0;fontSize=14;fontColor=#000000;" edge="1" parent="GoxW9i7ttROze6nMOIQV-1" source="TbF9bN0-pzQNAajZCIpg-8" target="TbF9bN0-pzQNAajZCIpg-9">
          <mxGeometry relative="1" as="geometry" />
        </mxCell>
        <mxCell id="TbF9bN0-pzQNAajZCIpg-8" value="play.dracarys" style="rounded=1;whiteSpace=wrap;html=1;strokeWidth=1;fillColor=#60a917;strokeColor=#2D7600;fontColor=#ffffff;" vertex="1" parent="GoxW9i7ttROze6nMOIQV-1">
          <mxGeometry x="160" y="145" width="110" height="30" as="geometry" />
        </mxCell>
        <mxCell id="TbF9bN0-pzQNAajZCIpg-17" style="edgeStyle=orthogonalEdgeStyle;rounded=0;orthogonalLoop=1;jettySize=auto;html=1;exitX=0.5;exitY=1;exitDx=0;exitDy=0;entryX=0.5;entryY=0;entryDx=0;entryDy=0;fontSize=14;fontColor=#000000;" edge="1" parent="GoxW9i7ttROze6nMOIQV-1" source="TbF9bN0-pzQNAajZCIpg-9" target="TbF9bN0-pzQNAajZCIpg-15">
          <mxGeometry relative="1" as="geometry">
            <Array as="points">
              <mxPoint x="330" y="315" />
              <mxPoint x="225" y="315" />
            </Array>
          </mxGeometry>
        </mxCell>
        <mxCell id="TbF9bN0-pzQNAajZCIpg-18" style="edgeStyle=orthogonalEdgeStyle;rounded=0;orthogonalLoop=1;jettySize=auto;html=1;exitX=0.5;exitY=1;exitDx=0;exitDy=0;fontSize=14;fontColor=#000000;" edge="1" parent="GoxW9i7ttROze6nMOIQV-1" source="TbF9bN0-pzQNAajZCIpg-9" target="TbF9bN0-pzQNAajZCIpg-16">
          <mxGeometry relative="1" as="geometry">
            <Array as="points">
              <mxPoint x="330" y="315" />
              <mxPoint x="445" y="315" />
            </Array>
          </mxGeometry>
        </mxCell>
        <mxCell id="TbF9bN0-pzQNAajZCIpg-9" value="play.doraemon" style="rounded=1;whiteSpace=wrap;html=1;strokeWidth=1;fillColor=#f0a30a;strokeColor=#BD7000;fontColor=#ffffff;" vertex="1" parent="GoxW9i7ttROze6nMOIQV-1">
          <mxGeometry x="230" y="245" width="200" height="30" as="geometry" />
        </mxCell>
        <mxCell id="TbF9bN0-pzQNAajZCIpg-15" value="marketing.&lt;span style=&quot;text-align: left&quot;&gt;maintainer&lt;/span&gt;" style="rounded=1;whiteSpace=wrap;html=1;strokeWidth=1;fillColor=#647687;strokeColor=#314354;fontColor=#ffffff;" vertex="1" parent="GoxW9i7ttROze6nMOIQV-1">
          <mxGeometry x="140" y="335" width="170" height="30" as="geometry" />
        </mxCell>
        <mxCell id="TbF9bN0-pzQNAajZCIpg-16" value="&lt;span class=&quot;emonitor-chart-legend-alias&quot; style=&quot;box-sizing: border-box ; padding: 0px 5px ; display: table-cell ; text-align: left&quot;&gt;marketing.coupon_maintainer&lt;br&gt;&lt;/span&gt;" style="rounded=1;whiteSpace=wrap;html=1;strokeWidth=1;fontStyle=0;fillColor=#647687;strokeColor=#314354;fontColor=#ffffff;" vertex="1" parent="GoxW9i7ttROze6nMOIQV-1">
          <mxGeometry x="360" y="335" width="170" height="30" as="geometry" />
        </mxCell>
        <mxCell id="hJNpM2pKw44CJvwhTgb--2" style="edgeStyle=orthogonalEdgeStyle;rounded=0;orthogonalLoop=1;jettySize=auto;html=1;exitX=1;exitY=0.5;exitDx=0;exitDy=0;dashed=1;fontSize=14;fontColor=#000000;" edge="1" parent="GoxW9i7ttROze6nMOIQV-1" source="hJNpM2pKw44CJvwhTgb--0" target="TbF9bN0-pzQNAajZCIpg-9">
          <mxGeometry relative="1" as="geometry" />
        </mxCell>
        <mxCell id="hJNpM2pKw44CJvwhTgb--0" value="play.watchman" style="rounded=1;whiteSpace=wrap;html=1;strokeWidth=1;fillColor=#f0a30a;strokeColor=#BD7000;fontColor=#ffffff;" vertex="1" parent="GoxW9i7ttROze6nMOIQV-1">
          <mxGeometry x="70" y="245" width="110" height="30" as="geometry" />
        </mxCell>
      </root>
    </mxGraphModel>
  </diagram>
  <diagram id="O_hJh30Pf40c1ot0d0xL" name="商户创建活动全景">
    <mxGraphModel dx="974" dy="542" grid="1" gridSize="10" guides="1" tooltips="1" connect="1" arrows="1" fold="1" page="1" pageScale="1" pageWidth="827" pageHeight="1169" math="0" shadow="0">
      <root>
        <mxCell id="78wxHP2ryN4so_1R4G5E-0" />
        <mxCell id="78wxHP2ryN4so_1R4G5E-1" parent="78wxHP2ryN4so_1R4G5E-0" />
        <mxCell id="bbKJ8AI8-GUlV3ogE-y5-0" value="" style="rounded=1;whiteSpace=wrap;html=1;dashed=1;arcSize=17;" vertex="1" parent="78wxHP2ryN4so_1R4G5E-1">
          <mxGeometry x="110" y="130" width="580" height="360" as="geometry" />
        </mxCell>
        <mxCell id="bbKJ8AI8-GUlV3ogE-y5-1" style="edgeStyle=orthogonalEdgeStyle;rounded=0;orthogonalLoop=1;jettySize=auto;html=1;exitX=0.5;exitY=1;exitDx=0;exitDy=0;fontSize=16;fontColor=#000000;dashed=1;" edge="1" parent="78wxHP2ryN4so_1R4G5E-1" source="bbKJ8AI8-GUlV3ogE-y5-2" target="bbKJ8AI8-GUlV3ogE-y5-5">
          <mxGeometry relative="1" as="geometry" />
        </mxCell>
        <mxCell id="bbKJ8AI8-GUlV3ogE-y5-2" value="创建活动" style="rounded=1;whiteSpace=wrap;html=1;fillColor=#1ba1e2;strokeColor=#006EAF;fontColor=#000000;fontSize=16;" vertex="1" parent="78wxHP2ryN4so_1R4G5E-1">
          <mxGeometry x="160" y="154" width="100" height="50" as="geometry" />
        </mxCell>
        <mxCell id="bbKJ8AI8-GUlV3ogE-y5-3" style="edgeStyle=orthogonalEdgeStyle;rounded=0;orthogonalLoop=1;jettySize=auto;html=1;exitX=0.5;exitY=1;exitDx=0;exitDy=0;dashed=1;fontSize=16;fontColor=#000000;" edge="1" parent="78wxHP2ryN4so_1R4G5E-1" source="bbKJ8AI8-GUlV3ogE-y5-5" target="bbKJ8AI8-GUlV3ogE-y5-6">
          <mxGeometry relative="1" as="geometry" />
        </mxCell>
        <mxCell id="bbKJ8AI8-GUlV3ogE-y5-5" value="冲突校验" style="rounded=1;whiteSpace=wrap;html=1;fillColor=#1ba1e2;strokeColor=#006EAF;fontColor=#000000;fontSize=16;" vertex="1" parent="78wxHP2ryN4so_1R4G5E-1">
          <mxGeometry x="160" y="264" width="100" height="50" as="geometry" />
        </mxCell>
        <mxCell id="bbKJ8AI8-GUlV3ogE-y5-92" style="edgeStyle=orthogonalEdgeStyle;rounded=0;orthogonalLoop=1;jettySize=auto;html=1;exitX=0.5;exitY=1;exitDx=0;exitDy=0;entryX=0.5;entryY=0;entryDx=0;entryDy=0;dashed=1;fontSize=14;fontColor=#000000;" edge="1" parent="78wxHP2ryN4so_1R4G5E-1" source="bbKJ8AI8-GUlV3ogE-y5-6" target="bbKJ8AI8-GUlV3ogE-y5-62">
          <mxGeometry relative="1" as="geometry" />
        </mxCell>
        <mxCell id="bbKJ8AI8-GUlV3ogE-y5-95" value="上活动" style="edgeLabel;html=1;align=center;verticalAlign=middle;resizable=0;points=[];fontSize=14;fontColor=#000000;" vertex="1" connectable="0" parent="bbKJ8AI8-GUlV3ogE-y5-92">
          <mxGeometry x="-0.1364" y="2" relative="1" as="geometry">
            <mxPoint as="offset" />
          </mxGeometry>
        </mxCell>
        <mxCell id="bbKJ8AI8-GUlV3ogE-y5-6" value="保存玩法" style="rounded=1;whiteSpace=wrap;html=1;fillColor=#1ba1e2;strokeColor=#006EAF;fontColor=#000000;fontSize=16;" vertex="1" parent="78wxHP2ryN4so_1R4G5E-1">
          <mxGeometry x="160" y="390" width="100" height="50" as="geometry" />
        </mxCell>
        <mxCell id="bbKJ8AI8-GUlV3ogE-y5-66" style="edgeStyle=orthogonalEdgeStyle;rounded=0;orthogonalLoop=1;jettySize=auto;html=1;exitX=1;exitY=0.75;exitDx=0;exitDy=0;entryX=0;entryY=0.5;entryDx=0;entryDy=0;fontSize=14;fontColor=#000000;dashed=1;" edge="1" parent="78wxHP2ryN4so_1R4G5E-1" source="bbKJ8AI8-GUlV3ogE-y5-11" target="bbKJ8AI8-GUlV3ogE-y5-2">
          <mxGeometry relative="1" as="geometry" />
        </mxCell>
        <mxCell id="bbKJ8AI8-GUlV3ogE-y5-11" value="&lt;br&gt;商户" style="shape=actor;whiteSpace=wrap;html=1;fillColor=#176FBD;fontSize=16;fontColor=#ffffff;strokeColor=#006EAF;" vertex="1" parent="78wxHP2ryN4so_1R4G5E-1">
          <mxGeometry x="10" y="134" width="70" height="60" as="geometry" />
        </mxCell>
        <mxCell id="bbKJ8AI8-GUlV3ogE-y5-85" style="edgeStyle=orthogonalEdgeStyle;rounded=0;orthogonalLoop=1;jettySize=auto;html=1;exitX=1;exitY=0.5;exitDx=0;exitDy=0;entryX=0;entryY=0.5;entryDx=0;entryDy=0;dashed=1;fontSize=14;fontColor=#000000;" edge="1" parent="78wxHP2ryN4so_1R4G5E-1" source="bbKJ8AI8-GUlV3ogE-y5-16" target="bbKJ8AI8-GUlV3ogE-y5-77">
          <mxGeometry relative="1" as="geometry" />
        </mxCell>
        <mxCell id="bbKJ8AI8-GUlV3ogE-y5-86" value="异常" style="edgeLabel;html=1;align=center;verticalAlign=middle;resizable=0;points=[];fontSize=14;fontColor=#000000;" vertex="1" connectable="0" parent="bbKJ8AI8-GUlV3ogE-y5-85">
          <mxGeometry x="-0.0909" y="-2" relative="1" as="geometry">
            <mxPoint y="-11" as="offset" />
          </mxGeometry>
        </mxCell>
        <mxCell id="bbKJ8AI8-GUlV3ogE-y5-89" style="edgeStyle=orthogonalEdgeStyle;rounded=0;orthogonalLoop=1;jettySize=auto;html=1;exitX=0.5;exitY=1;exitDx=0;exitDy=0;dashed=1;fontSize=14;fontColor=#000000;" edge="1" parent="78wxHP2ryN4so_1R4G5E-1" source="bbKJ8AI8-GUlV3ogE-y5-16" target="bbKJ8AI8-GUlV3ogE-y5-62">
          <mxGeometry relative="1" as="geometry" />
        </mxCell>
        <mxCell id="bbKJ8AI8-GUlV3ogE-y5-94" value="下补贴" style="edgeLabel;html=1;align=center;verticalAlign=middle;resizable=0;points=[];fontSize=14;fontColor=#000000;" vertex="1" connectable="0" parent="bbKJ8AI8-GUlV3ogE-y5-89">
          <mxGeometry x="-0.2692" y="2" relative="1" as="geometry">
            <mxPoint as="offset" />
          </mxGeometry>
        </mxCell>
        <mxCell id="bbKJ8AI8-GUlV3ogE-y5-16" value="下补贴" style="rounded=1;whiteSpace=wrap;html=1;fillColor=#1ba1e2;strokeColor=#006EAF;fontColor=#000000;fontSize=16;" vertex="1" parent="78wxHP2ryN4so_1R4G5E-1">
          <mxGeometry x="380" y="264" width="100" height="50" as="geometry" />
        </mxCell>
        <mxCell id="bbKJ8AI8-GUlV3ogE-y5-17" style="edgeStyle=orthogonalEdgeStyle;rounded=0;orthogonalLoop=1;jettySize=auto;html=1;exitX=0.5;exitY=1;exitDx=0;exitDy=0;entryX=0.5;entryY=0;entryDx=0;entryDy=0;dashed=1;fontSize=14;fontColor=#000000;" edge="1" parent="78wxHP2ryN4so_1R4G5E-1" source="bbKJ8AI8-GUlV3ogE-y5-19" target="bbKJ8AI8-GUlV3ogE-y5-2">
          <mxGeometry relative="1" as="geometry" />
        </mxCell>
        <mxCell id="bbKJ8AI8-GUlV3ogE-y5-18" value="选择预算" style="text;html=1;align=center;verticalAlign=middle;resizable=0;points=[];labelBackgroundColor=#ffffff;fontSize=14;fontColor=#000000;" vertex="1" connectable="0" parent="bbKJ8AI8-GUlV3ogE-y5-17">
          <mxGeometry x="-0.7375" relative="1" as="geometry">
            <mxPoint y="9" as="offset" />
          </mxGeometry>
        </mxCell>
        <mxCell id="bbKJ8AI8-GUlV3ogE-y5-19" value="预算池" style="rounded=1;whiteSpace=wrap;html=1;fillColor=#bac8d3;strokeColor=#23445d;fontSize=16;" vertex="1" parent="78wxHP2ryN4so_1R4G5E-1">
          <mxGeometry x="230" y="10" width="100" height="50" as="geometry" />
        </mxCell>
        <mxCell id="bbKJ8AI8-GUlV3ogE-y5-20" style="edgeStyle=orthogonalEdgeStyle;rounded=0;orthogonalLoop=1;jettySize=auto;html=1;exitX=0.5;exitY=1;exitDx=0;exitDy=0;entryX=0.5;entryY=0;entryDx=0;entryDy=0;dashed=1;fontSize=14;fontColor=#000000;" edge="1" parent="78wxHP2ryN4so_1R4G5E-1" source="bbKJ8AI8-GUlV3ogE-y5-22" target="bbKJ8AI8-GUlV3ogE-y5-2">
          <mxGeometry relative="1" as="geometry" />
        </mxCell>
        <mxCell id="bbKJ8AI8-GUlV3ogE-y5-21" value="算法锚点" style="text;html=1;align=center;verticalAlign=middle;resizable=0;points=[];labelBackgroundColor=#ffffff;fontSize=14;fontColor=#000000;" vertex="1" connectable="0" parent="bbKJ8AI8-GUlV3ogE-y5-20">
          <mxGeometry x="-0.6133" y="-2" relative="1" as="geometry">
            <mxPoint as="offset" />
          </mxGeometry>
        </mxCell>
        <mxCell id="bbKJ8AI8-GUlV3ogE-y5-22" value="B端算法" style="rounded=1;whiteSpace=wrap;html=1;fillColor=#bac8d3;strokeColor=#23445d;fontSize=16;" vertex="1" parent="78wxHP2ryN4so_1R4G5E-1">
          <mxGeometry x="100" y="10" width="100" height="50" as="geometry" />
        </mxCell>
        <mxCell id="bbKJ8AI8-GUlV3ogE-y5-68" style="edgeStyle=orthogonalEdgeStyle;rounded=0;orthogonalLoop=1;jettySize=auto;html=1;exitX=0.5;exitY=1;exitDx=0;exitDy=0;entryX=0.5;entryY=0;entryDx=0;entryDy=0;dashed=1;fontSize=14;fontColor=#000000;" edge="1" parent="78wxHP2ryN4so_1R4G5E-1" source="bbKJ8AI8-GUlV3ogE-y5-27" target="bbKJ8AI8-GUlV3ogE-y5-16">
          <mxGeometry relative="1" as="geometry" />
        </mxCell>
        <mxCell id="bbKJ8AI8-GUlV3ogE-y5-87" value="下补贴" style="edgeLabel;html=1;align=center;verticalAlign=middle;resizable=0;points=[];fontSize=14;fontColor=#000000;" vertex="1" connectable="0" parent="bbKJ8AI8-GUlV3ogE-y5-68">
          <mxGeometry x="-0.2696" relative="1" as="geometry">
            <mxPoint as="offset" />
          </mxGeometry>
        </mxCell>
        <mxCell id="bbKJ8AI8-GUlV3ogE-y5-82" style="edgeStyle=orthogonalEdgeStyle;rounded=0;orthogonalLoop=1;jettySize=auto;html=1;exitX=1;exitY=0.5;exitDx=0;exitDy=0;dashed=1;fontSize=14;fontColor=#000000;" edge="1" parent="78wxHP2ryN4so_1R4G5E-1" source="bbKJ8AI8-GUlV3ogE-y5-27" target="bbKJ8AI8-GUlV3ogE-y5-77">
          <mxGeometry relative="1" as="geometry" />
        </mxCell>
        <mxCell id="bbKJ8AI8-GUlV3ogE-y5-88" value="下活动" style="edgeLabel;html=1;align=center;verticalAlign=middle;resizable=0;points=[];fontSize=14;fontColor=#000000;" vertex="1" connectable="0" parent="bbKJ8AI8-GUlV3ogE-y5-82">
          <mxGeometry x="0.5307" y="1" relative="1" as="geometry">
            <mxPoint as="offset" />
          </mxGeometry>
        </mxCell>
        <mxCell id="bbKJ8AI8-GUlV3ogE-y5-27" value="调度服务" style="rounded=1;whiteSpace=wrap;html=1;fillColor=#1ba1e2;strokeColor=#006EAF;fontColor=#000000;fontSize=16;" vertex="1" parent="78wxHP2ryN4so_1R4G5E-1">
          <mxGeometry x="380" y="154" width="100" height="50" as="geometry" />
        </mxCell>
        <mxCell id="bbKJ8AI8-GUlV3ogE-y5-41" style="edgeStyle=orthogonalEdgeStyle;rounded=0;orthogonalLoop=1;jettySize=auto;html=1;exitX=0.5;exitY=1;exitDx=0;exitDy=0;dashed=1;fontSize=14;fontColor=#000000;" edge="1" parent="78wxHP2ryN4so_1R4G5E-1" source="bbKJ8AI8-GUlV3ogE-y5-43" target="bbKJ8AI8-GUlV3ogE-y5-27">
          <mxGeometry relative="1" as="geometry" />
        </mxCell>
        <mxCell id="bbKJ8AI8-GUlV3ogE-y5-42" value="熔断" style="text;html=1;align=center;verticalAlign=middle;resizable=0;points=[];labelBackgroundColor=#ffffff;fontSize=14;fontColor=#000000;" vertex="1" connectable="0" parent="bbKJ8AI8-GUlV3ogE-y5-41">
          <mxGeometry x="-0.6413" y="1" relative="1" as="geometry">
            <mxPoint x="-1" y="13" as="offset" />
          </mxGeometry>
        </mxCell>
        <mxCell id="bbKJ8AI8-GUlV3ogE-y5-43" value="预算管控" style="rounded=1;whiteSpace=wrap;html=1;fillColor=#bac8d3;strokeColor=#23445d;fontSize=16;" vertex="1" parent="78wxHP2ryN4so_1R4G5E-1">
          <mxGeometry x="380" y="10" width="100" height="50" as="geometry" />
        </mxCell>
        <mxCell id="bbKJ8AI8-GUlV3ogE-y5-49" value="" style="rounded=0;whiteSpace=wrap;html=1;fillColor=none;fontSize=14;fontColor=#000000;dashed=1;" vertex="1" parent="78wxHP2ryN4so_1R4G5E-1">
          <mxGeometry x="678" y="5" width="120" height="115" as="geometry" />
        </mxCell>
        <mxCell id="bbKJ8AI8-GUlV3ogE-y5-50" value="图例说明" style="text;html=1;align=center;verticalAlign=middle;resizable=0;points=[];autosize=1;fontSize=14;fontColor=#FF0000;" vertex="1" parent="78wxHP2ryN4so_1R4G5E-1">
          <mxGeometry x="677" y="7" width="70" height="20" as="geometry" />
        </mxCell>
        <mxCell id="bbKJ8AI8-GUlV3ogE-y5-51" value="" style="rounded=1;whiteSpace=wrap;html=1;fillColor=#1ba1e2;strokeColor=#006EAF;fontColor=#000000;fontSize=16;" vertex="1" parent="78wxHP2ryN4so_1R4G5E-1">
          <mxGeometry x="692" y="33.5" width="40" height="15" as="geometry" />
        </mxCell>
        <mxCell id="bbKJ8AI8-GUlV3ogE-y5-52" value="内部模块" style="text;html=1;align=center;verticalAlign=middle;resizable=0;points=[];autosize=1;fontSize=12;fontColor=#000000;" vertex="1" parent="78wxHP2ryN4so_1R4G5E-1">
          <mxGeometry x="738" y="31" width="60" height="20" as="geometry" />
        </mxCell>
        <mxCell id="bbKJ8AI8-GUlV3ogE-y5-53" value="" style="rounded=1;whiteSpace=wrap;html=1;fillColor=#bac8d3;strokeColor=#23445d;fontSize=16;" vertex="1" parent="78wxHP2ryN4so_1R4G5E-1">
          <mxGeometry x="692" y="55.5" width="40" height="15" as="geometry" />
        </mxCell>
        <mxCell id="bbKJ8AI8-GUlV3ogE-y5-54" value="外部系统" style="text;html=1;align=center;verticalAlign=middle;resizable=0;points=[];autosize=1;fontSize=12;fontColor=#000000;" vertex="1" parent="78wxHP2ryN4so_1R4G5E-1">
          <mxGeometry x="738" y="53" width="60" height="20" as="geometry" />
        </mxCell>
        <mxCell id="bbKJ8AI8-GUlV3ogE-y5-55" value="" style="endArrow=classic;html=1;dashed=1;fontSize=12;fontColor=#000000;" edge="1" parent="78wxHP2ryN4so_1R4G5E-1">
          <mxGeometry width="50" height="50" relative="1" as="geometry">
            <mxPoint x="694" y="84" as="sourcePoint" />
            <mxPoint x="734" y="84" as="targetPoint" />
          </mxGeometry>
        </mxCell>
        <mxCell id="bbKJ8AI8-GUlV3ogE-y5-56" value="依赖" style="text;html=1;align=center;verticalAlign=middle;resizable=0;points=[];autosize=1;fontSize=12;fontColor=#000000;" vertex="1" parent="78wxHP2ryN4so_1R4G5E-1">
          <mxGeometry x="748" y="73" width="40" height="20" as="geometry" />
        </mxCell>
        <mxCell id="bbKJ8AI8-GUlV3ogE-y5-57" value="" style="shape=actor;whiteSpace=wrap;html=1;fillColor=#176FBD;fontSize=16;fontColor=#ffffff;strokeColor=#006EAF;" vertex="1" parent="78wxHP2ryN4so_1R4G5E-1">
          <mxGeometry x="701.5" y="95" width="21" height="13" as="geometry" />
        </mxCell>
        <mxCell id="bbKJ8AI8-GUlV3ogE-y5-58" value="角色" style="text;html=1;align=center;verticalAlign=middle;resizable=0;points=[];autosize=1;fontSize=12;fontColor=#000000;" vertex="1" parent="78wxHP2ryN4so_1R4G5E-1">
          <mxGeometry x="748" y="91.5" width="40" height="20" as="geometry" />
        </mxCell>
        <mxCell id="bbKJ8AI8-GUlV3ogE-y5-62" value="底层" style="rounded=1;whiteSpace=wrap;html=1;fillColor=#bac8d3;strokeColor=#23445d;fontSize=16;" vertex="1" parent="78wxHP2ryN4so_1R4G5E-1">
          <mxGeometry x="380" y="520" width="100" height="50" as="geometry" />
        </mxCell>
        <mxCell id="bbKJ8AI8-GUlV3ogE-y5-78" style="edgeStyle=orthogonalEdgeStyle;rounded=0;orthogonalLoop=1;jettySize=auto;html=1;exitX=0.5;exitY=1;exitDx=0;exitDy=0;entryX=0.5;entryY=0;entryDx=0;entryDy=0;dashed=1;fontSize=14;fontColor=#000000;" edge="1" parent="78wxHP2ryN4so_1R4G5E-1" source="bbKJ8AI8-GUlV3ogE-y5-76" target="bbKJ8AI8-GUlV3ogE-y5-27">
          <mxGeometry relative="1" as="geometry" />
        </mxCell>
        <mxCell id="bbKJ8AI8-GUlV3ogE-y5-79" value="活动到期/活动延期" style="edgeLabel;html=1;align=center;verticalAlign=middle;resizable=0;points=[];fontSize=14;fontColor=#000000;" vertex="1" connectable="0" parent="bbKJ8AI8-GUlV3ogE-y5-78">
          <mxGeometry x="-0.2611" y="2" relative="1" as="geometry">
            <mxPoint as="offset" />
          </mxGeometry>
        </mxCell>
        <mxCell id="bbKJ8AI8-GUlV3ogE-y5-76" value="Workflow" style="rounded=1;whiteSpace=wrap;html=1;fillColor=#bac8d3;strokeColor=#23445d;fontSize=16;" vertex="1" parent="78wxHP2ryN4so_1R4G5E-1">
          <mxGeometry x="530" y="10" width="100" height="50" as="geometry" />
        </mxCell>
        <mxCell id="bbKJ8AI8-GUlV3ogE-y5-90" style="edgeStyle=orthogonalEdgeStyle;rounded=0;orthogonalLoop=1;jettySize=auto;html=1;exitX=0.5;exitY=1;exitDx=0;exitDy=0;entryX=0.5;entryY=0;entryDx=0;entryDy=0;dashed=1;fontSize=14;fontColor=#000000;" edge="1" parent="78wxHP2ryN4so_1R4G5E-1" source="bbKJ8AI8-GUlV3ogE-y5-77" target="bbKJ8AI8-GUlV3ogE-y5-62">
          <mxGeometry relative="1" as="geometry">
            <Array as="points">
              <mxPoint x="610" y="480" />
              <mxPoint x="430" y="480" />
            </Array>
          </mxGeometry>
        </mxCell>
        <mxCell id="bbKJ8AI8-GUlV3ogE-y5-93" value="下活动" style="edgeLabel;html=1;align=center;verticalAlign=middle;resizable=0;points=[];fontSize=14;fontColor=#000000;" vertex="1" connectable="0" parent="bbKJ8AI8-GUlV3ogE-y5-90">
          <mxGeometry x="-0.6255" y="4" relative="1" as="geometry">
            <mxPoint as="offset" />
          </mxGeometry>
        </mxCell>
        <mxCell id="bbKJ8AI8-GUlV3ogE-y5-77" value="下活动" style="rounded=1;whiteSpace=wrap;html=1;fillColor=#1ba1e2;strokeColor=#006EAF;fontColor=#000000;fontSize=16;" vertex="1" parent="78wxHP2ryN4so_1R4G5E-1">
          <mxGeometry x="560" y="264" width="100" height="50" as="geometry" />
        </mxCell>
        <mxCell id="bbKJ8AI8-GUlV3ogE-y5-97" style="edgeStyle=orthogonalEdgeStyle;rounded=0;orthogonalLoop=1;jettySize=auto;html=1;exitX=0;exitY=0.5;exitDx=0;exitDy=0;entryX=1;entryY=0.5;entryDx=0;entryDy=0;dashed=1;fontSize=14;fontColor=#000000;" edge="1" parent="78wxHP2ryN4so_1R4G5E-1" source="bbKJ8AI8-GUlV3ogE-y5-96" target="bbKJ8AI8-GUlV3ogE-y5-77">
          <mxGeometry relative="1" as="geometry" />
        </mxCell>
        <mxCell id="bbKJ8AI8-GUlV3ogE-y5-96" value="底层DRC" style="rounded=1;whiteSpace=wrap;html=1;fillColor=#bac8d3;strokeColor=#23445d;fontSize=16;" vertex="1" parent="78wxHP2ryN4so_1R4G5E-1">
          <mxGeometry x="718" y="264" width="100" height="50" as="geometry" />
        </mxCell>
      </root>
    </mxGraphModel>
  </diagram>
  <diagram id="nS7QeUoA0v4HES4qIWY2" name="系统全链路">
    <mxGraphModel dx="1380" dy="768" grid="1" gridSize="10" guides="1" tooltips="1" connect="1" arrows="1" fold="1" page="1" pageScale="1" pageWidth="827" pageHeight="1169" math="0" shadow="0">
      <root>
        <mxCell id="w93WZqZ1Jj-PsuHGOYY3-0" />
        <mxCell id="w93WZqZ1Jj-PsuHGOYY3-1" parent="w93WZqZ1Jj-PsuHGOYY3-0" />
        <mxCell id="H4kHcmEN_btRz03gtQzD-18" style="edgeStyle=orthogonalEdgeStyle;rounded=0;orthogonalLoop=1;jettySize=auto;html=1;entryX=1;entryY=0.25;entryDx=0;entryDy=0;dashed=1;fontSize=14;fontColor=#000000;exitX=0;exitY=0.5;exitDx=0;exitDy=0;" edge="1" parent="w93WZqZ1Jj-PsuHGOYY3-1" source="H4kHcmEN_btRz03gtQzD-17" target="H4kHcmEN_btRz03gtQzD-13">
          <mxGeometry relative="1" as="geometry">
            <mxPoint x="590" y="510" as="sourcePoint" />
          </mxGeometry>
        </mxCell>
        <mxCell id="H4kHcmEN_btRz03gtQzD-17" value="" style="rounded=0;whiteSpace=wrap;html=1;strokeWidth=1;fontSize=14;fontColor=#000000;align=center;dashed=1;" vertex="1" parent="w93WZqZ1Jj-PsuHGOYY3-1">
          <mxGeometry x="423" y="435" width="120" height="150" as="geometry" />
        </mxCell>
        <mxCell id="No3jNjglMupow7z3h6OO-0" value="商户营销" style="rounded=0;whiteSpace=wrap;html=1;strokeWidth=1;fontSize=20;fontColor=#ffffff;align=center;fontStyle=1;fillColor=#1ba1e2;strokeColor=#006EAF;" vertex="1" parent="w93WZqZ1Jj-PsuHGOYY3-1">
          <mxGeometry x="70" y="60" width="140" height="40" as="geometry" />
        </mxCell>
        <mxCell id="No3jNjglMupow7z3h6OO-1" value="B端算法" style="rounded=0;whiteSpace=wrap;html=1;strokeWidth=1;fontSize=20;fontColor=#ffffff;align=center;fontStyle=1;fillColor=#1ba1e2;strokeColor=#006EAF;" vertex="1" parent="w93WZqZ1Jj-PsuHGOYY3-1">
          <mxGeometry x="580" y="60" width="140" height="40" as="geometry" />
        </mxCell>
        <mxCell id="No3jNjglMupow7z3h6OO-3" value="数据中心" style="rounded=0;whiteSpace=wrap;html=1;strokeWidth=1;fontSize=20;fontColor=#ffffff;align=center;fontStyle=1;fillColor=#1ba1e2;strokeColor=#006EAF;" vertex="1" parent="w93WZqZ1Jj-PsuHGOYY3-1">
          <mxGeometry x="240" y="60" width="140" height="40" as="geometry" />
        </mxCell>
        <mxCell id="No3jNjglMupow7z3h6OO-4" value="&lt;br&gt;&lt;br&gt;商家" style="shape=actor;whiteSpace=wrap;html=1;strokeWidth=1;fontSize=14;fontColor=#ffffff;align=center;fillColor=#f0a30a;strokeColor=#BD7000;" vertex="1" parent="w93WZqZ1Jj-PsuHGOYY3-1">
          <mxGeometry y="120" width="40" height="60" as="geometry" />
        </mxCell>
        <mxCell id="No3jNjglMupow7z3h6OO-6" value="商业化" style="rounded=0;whiteSpace=wrap;html=1;strokeWidth=1;fontSize=20;fontColor=#ffffff;align=center;fontStyle=1;fillColor=#1ba1e2;strokeColor=#006EAF;" vertex="1" parent="w93WZqZ1Jj-PsuHGOYY3-1">
          <mxGeometry x="413" y="60" width="140" height="40" as="geometry" />
        </mxCell>
        <mxCell id="No3jNjglMupow7z3h6OO-7" value="导购" style="rounded=0;whiteSpace=wrap;html=1;strokeWidth=1;fontSize=20;fontColor=#ffffff;align=center;fontStyle=1;fillColor=#1ba1e2;strokeColor=#006EAF;" vertex="1" parent="w93WZqZ1Jj-PsuHGOYY3-1">
          <mxGeometry x="1260" y="60" width="140" height="40" as="geometry" />
        </mxCell>
        <mxCell id="No3jNjglMupow7z3h6OO-8" value="交易中台" style="rounded=0;whiteSpace=wrap;html=1;strokeWidth=1;fontSize=20;fontColor=#ffffff;align=center;fontStyle=1;fillColor=#1ba1e2;strokeColor=#006EAF;" vertex="1" parent="w93WZqZ1Jj-PsuHGOYY3-1">
          <mxGeometry x="1430" y="60" width="140" height="40" as="geometry" />
        </mxCell>
        <mxCell id="No3jNjglMupow7z3h6OO-9" value="清结算" style="rounded=0;whiteSpace=wrap;html=1;strokeWidth=1;fontSize=20;fontColor=#ffffff;align=center;fontStyle=1;fillColor=#1ba1e2;strokeColor=#006EAF;" vertex="1" parent="w93WZqZ1Jj-PsuHGOYY3-1">
          <mxGeometry x="1600" y="60" width="140" height="40" as="geometry" />
        </mxCell>
        <mxCell id="No3jNjglMupow7z3h6OO-10" value="账户" style="rounded=0;whiteSpace=wrap;html=1;strokeWidth=1;fontSize=20;fontColor=#ffffff;align=center;fontStyle=1;fillColor=#1ba1e2;strokeColor=#006EAF;" vertex="1" parent="w93WZqZ1Jj-PsuHGOYY3-1">
          <mxGeometry x="1770" y="60" width="140" height="40" as="geometry" />
        </mxCell>
        <mxCell id="H4kHcmEN_btRz03gtQzD-45" style="edgeStyle=orthogonalEdgeStyle;rounded=0;orthogonalLoop=1;jettySize=auto;html=1;exitX=0.5;exitY=1;exitDx=0;exitDy=0;entryX=0.5;entryY=0;entryDx=0;entryDy=0;dashed=1;fontSize=14;fontColor=#000000;" edge="1" parent="w93WZqZ1Jj-PsuHGOYY3-1" source="No3jNjglMupow7z3h6OO-11" target="H4kHcmEN_btRz03gtQzD-8">
          <mxGeometry relative="1" as="geometry" />
        </mxCell>
        <mxCell id="No3jNjglMupow7z3h6OO-11" value="&lt;b&gt;&lt;font style=&quot;font-size: 18px&quot;&gt;1. 加载表单&lt;/font&gt;&lt;/b&gt;&lt;br&gt;预算&lt;br&gt;算法锚点&lt;br&gt;商业化协议" style="rounded=0;whiteSpace=wrap;html=1;strokeWidth=1;fontSize=14;fontColor=#000000;align=center;verticalAlign=top;" vertex="1" parent="w93WZqZ1Jj-PsuHGOYY3-1">
          <mxGeometry x="80" y="160" width="120" height="120" as="geometry" />
        </mxCell>
        <mxCell id="H4kHcmEN_btRz03gtQzD-0" value="B端" style="rounded=0;whiteSpace=wrap;html=1;strokeWidth=1;fontSize=14;align=center;gradientColor=#ffa500;fillColor=#ffcd28;strokeColor=#d79b00;" vertex="1" parent="w93WZqZ1Jj-PsuHGOYY3-1">
          <mxGeometry x="70" y="10" width="750" height="30" as="geometry" />
        </mxCell>
        <mxCell id="H4kHcmEN_btRz03gtQzD-5" style="edgeStyle=orthogonalEdgeStyle;rounded=0;orthogonalLoop=1;jettySize=auto;html=1;exitX=0.5;exitY=1;exitDx=0;exitDy=0;entryX=1;entryY=0.25;entryDx=0;entryDy=0;dashed=1;fontSize=14;fontColor=#000000;" edge="1" parent="w93WZqZ1Jj-PsuHGOYY3-1" source="H4kHcmEN_btRz03gtQzD-2" target="No3jNjglMupow7z3h6OO-11">
          <mxGeometry relative="1" as="geometry" />
        </mxCell>
        <mxCell id="H4kHcmEN_btRz03gtQzD-2" value="满减力度、档位" style="whiteSpace=wrap;html=1;strokeWidth=1;fontSize=14;fontColor=#000000;align=center;" vertex="1" parent="w93WZqZ1Jj-PsuHGOYY3-1">
          <mxGeometry x="595" y="120" width="110" height="30" as="geometry" />
        </mxCell>
        <mxCell id="H4kHcmEN_btRz03gtQzD-48" style="edgeStyle=orthogonalEdgeStyle;rounded=0;orthogonalLoop=1;jettySize=auto;html=1;exitX=0;exitY=0.5;exitDx=0;exitDy=0;entryX=1;entryY=0.75;entryDx=0;entryDy=0;dashed=1;fontSize=14;fontColor=#000000;" edge="1" parent="w93WZqZ1Jj-PsuHGOYY3-1" source="H4kHcmEN_btRz03gtQzD-4" target="No3jNjglMupow7z3h6OO-11">
          <mxGeometry relative="1" as="geometry" />
        </mxCell>
        <mxCell id="H4kHcmEN_btRz03gtQzD-4" value="商业化协议" style="whiteSpace=wrap;html=1;strokeWidth=1;fontSize=14;fontColor=#000000;align=center;" vertex="1" parent="w93WZqZ1Jj-PsuHGOYY3-1">
          <mxGeometry x="440.5" y="235" width="85" height="30" as="geometry" />
        </mxCell>
        <mxCell id="H4kHcmEN_btRz03gtQzD-10" style="edgeStyle=orthogonalEdgeStyle;rounded=0;orthogonalLoop=1;jettySize=auto;html=1;exitX=1;exitY=0.25;exitDx=0;exitDy=0;entryX=0;entryY=0.5;entryDx=0;entryDy=0;dashed=1;fontSize=14;fontColor=#000000;" edge="1" parent="w93WZqZ1Jj-PsuHGOYY3-1" source="H4kHcmEN_btRz03gtQzD-8" target="H4kHcmEN_btRz03gtQzD-9">
          <mxGeometry relative="1" as="geometry" />
        </mxCell>
        <mxCell id="H4kHcmEN_btRz03gtQzD-12" style="edgeStyle=orthogonalEdgeStyle;rounded=0;orthogonalLoop=1;jettySize=auto;html=1;exitX=1;exitY=0.5;exitDx=0;exitDy=0;entryX=0;entryY=0.5;entryDx=0;entryDy=0;dashed=1;fontSize=14;fontColor=#000000;" edge="1" parent="w93WZqZ1Jj-PsuHGOYY3-1" source="H4kHcmEN_btRz03gtQzD-8" target="H4kHcmEN_btRz03gtQzD-11">
          <mxGeometry relative="1" as="geometry" />
        </mxCell>
        <mxCell id="H4kHcmEN_btRz03gtQzD-46" style="edgeStyle=orthogonalEdgeStyle;rounded=0;orthogonalLoop=1;jettySize=auto;html=1;exitX=0.5;exitY=1;exitDx=0;exitDy=0;entryX=0.5;entryY=0;entryDx=0;entryDy=0;dashed=1;fontSize=14;fontColor=#000000;" edge="1" parent="w93WZqZ1Jj-PsuHGOYY3-1" source="H4kHcmEN_btRz03gtQzD-8" target="H4kHcmEN_btRz03gtQzD-13">
          <mxGeometry relative="1" as="geometry" />
        </mxCell>
        <mxCell id="H4kHcmEN_btRz03gtQzD-8" value="&lt;b&gt;&lt;font style=&quot;font-size: 18px&quot;&gt;2. 创建活动&lt;/font&gt;&lt;/b&gt;&lt;br&gt;开通商业化服务&lt;br&gt;满减3.0打标&lt;br&gt;保存活动" style="rounded=0;whiteSpace=wrap;html=1;strokeWidth=1;fontSize=14;fontColor=#000000;align=center;verticalAlign=top;" vertex="1" parent="w93WZqZ1Jj-PsuHGOYY3-1">
          <mxGeometry x="80" y="330" width="120" height="120" as="geometry" />
        </mxCell>
        <mxCell id="H4kHcmEN_btRz03gtQzD-9" value="开通账户" style="whiteSpace=wrap;html=1;strokeWidth=1;fontSize=14;fontColor=#000000;align=center;" vertex="1" parent="w93WZqZ1Jj-PsuHGOYY3-1">
          <mxGeometry x="440.5" y="345" width="85" height="30" as="geometry" />
        </mxCell>
        <mxCell id="H4kHcmEN_btRz03gtQzD-11" value="创建活动" style="whiteSpace=wrap;html=1;strokeWidth=1;fontSize=14;fontColor=#000000;align=center;" vertex="1" parent="w93WZqZ1Jj-PsuHGOYY3-1">
          <mxGeometry x="777.5" y="375" width="85" height="30" as="geometry" />
        </mxCell>
        <mxCell id="H4kHcmEN_btRz03gtQzD-13" value="&lt;b&gt;&lt;font style=&quot;font-size: 18px&quot;&gt;3. 活动预览&lt;/font&gt;&lt;/b&gt;&lt;br&gt;满减返现数据&lt;br&gt;转化数据&lt;br&gt;商业化承接页跳转&lt;br&gt;活动效果页面" style="rounded=0;whiteSpace=wrap;html=1;strokeWidth=1;fontSize=14;fontColor=#000000;align=center;verticalAlign=top;" vertex="1" parent="w93WZqZ1Jj-PsuHGOYY3-1">
          <mxGeometry x="80" y="540" width="120" height="120" as="geometry" />
        </mxCell>
        <mxCell id="H4kHcmEN_btRz03gtQzD-14" value="返现金额" style="whiteSpace=wrap;html=1;strokeWidth=1;fontSize=14;fontColor=#000000;align=center;" vertex="1" parent="w93WZqZ1Jj-PsuHGOYY3-1">
          <mxGeometry x="440.5" y="450" width="85" height="30" as="geometry" />
        </mxCell>
        <mxCell id="H4kHcmEN_btRz03gtQzD-15" value="转化数据" style="whiteSpace=wrap;html=1;strokeWidth=1;fontSize=14;fontColor=#000000;align=center;" vertex="1" parent="w93WZqZ1Jj-PsuHGOYY3-1">
          <mxGeometry x="440.5" y="495" width="85" height="30" as="geometry" />
        </mxCell>
        <mxCell id="H4kHcmEN_btRz03gtQzD-16" value="承接页链接" style="whiteSpace=wrap;html=1;strokeWidth=1;fontSize=14;fontColor=#000000;align=center;" vertex="1" parent="w93WZqZ1Jj-PsuHGOYY3-1">
          <mxGeometry x="443" y="540" width="82.5" height="30" as="geometry" />
        </mxCell>
        <mxCell id="H4kHcmEN_btRz03gtQzD-19" value="活动底层" style="rounded=0;whiteSpace=wrap;html=1;strokeWidth=1;fontSize=20;fontColor=#ffffff;align=center;fontStyle=1;fillColor=#1ba1e2;strokeColor=#006EAF;" vertex="1" parent="w93WZqZ1Jj-PsuHGOYY3-1">
          <mxGeometry x="750" y="60" width="140" height="40" as="geometry" />
        </mxCell>
        <mxCell id="H4kHcmEN_btRz03gtQzD-21" style="edgeStyle=orthogonalEdgeStyle;rounded=0;orthogonalLoop=1;jettySize=auto;html=1;exitX=0;exitY=0.5;exitDx=0;exitDy=0;entryX=1;entryY=0.75;entryDx=0;entryDy=0;dashed=1;fontSize=14;fontColor=#000000;" edge="1" parent="w93WZqZ1Jj-PsuHGOYY3-1" source="H4kHcmEN_btRz03gtQzD-20" target="H4kHcmEN_btRz03gtQzD-13">
          <mxGeometry relative="1" as="geometry" />
        </mxCell>
        <mxCell id="H4kHcmEN_btRz03gtQzD-20" value="效果数据页" style="whiteSpace=wrap;html=1;strokeWidth=1;fontSize=14;fontColor=#000000;align=center;" vertex="1" parent="w93WZqZ1Jj-PsuHGOYY3-1">
          <mxGeometry x="267.5" y="615" width="85" height="30" as="geometry" />
        </mxCell>
        <mxCell id="H4kHcmEN_btRz03gtQzD-22" value="C端" style="rounded=0;whiteSpace=wrap;html=1;strokeWidth=1;fontSize=14;align=center;fillColor=#dae8fc;strokeColor=#6c8ebf;gradientColor=#7ea6e0;" vertex="1" parent="w93WZqZ1Jj-PsuHGOYY3-1">
          <mxGeometry x="840" y="10" width="1070" height="30" as="geometry" />
        </mxCell>
        <mxCell id="H4kHcmEN_btRz03gtQzD-23" value="MCC" style="rounded=0;whiteSpace=wrap;html=1;strokeWidth=1;fontSize=20;fontColor=#ffffff;align=center;fontStyle=1;fillColor=#1ba1e2;strokeColor=#006EAF;" vertex="1" parent="w93WZqZ1Jj-PsuHGOYY3-1">
          <mxGeometry x="1090" y="60" width="140" height="40" as="geometry" />
        </mxCell>
        <mxCell id="H4kHcmEN_btRz03gtQzD-44" style="edgeStyle=orthogonalEdgeStyle;rounded=0;orthogonalLoop=1;jettySize=auto;html=1;exitX=1;exitY=0.5;exitDx=0;exitDy=0;entryX=0.5;entryY=0;entryDx=0;entryDy=0;dashed=1;fontSize=14;fontColor=#000000;" edge="1" parent="w93WZqZ1Jj-PsuHGOYY3-1" source="H4kHcmEN_btRz03gtQzD-25" target="H4kHcmEN_btRz03gtQzD-40">
          <mxGeometry relative="1" as="geometry" />
        </mxCell>
        <mxCell id="H4kHcmEN_btRz03gtQzD-25" value="&lt;b&gt;&lt;font style=&quot;font-size: 18px&quot;&gt;4. 活动展示&lt;/font&gt;&lt;/b&gt;&lt;br&gt;查询活动" style="rounded=0;whiteSpace=wrap;html=1;strokeWidth=1;fontSize=14;fontColor=#000000;align=center;verticalAlign=top;" vertex="1" parent="w93WZqZ1Jj-PsuHGOYY3-1">
          <mxGeometry x="1270" y="410" width="120" height="120" as="geometry" />
        </mxCell>
        <mxCell id="H4kHcmEN_btRz03gtQzD-39" style="edgeStyle=orthogonalEdgeStyle;rounded=0;orthogonalLoop=1;jettySize=auto;html=1;exitX=1;exitY=0.5;exitDx=0;exitDy=0;entryX=0;entryY=0.25;entryDx=0;entryDy=0;dashed=1;fontSize=14;fontColor=#000000;" edge="1" parent="w93WZqZ1Jj-PsuHGOYY3-1" source="H4kHcmEN_btRz03gtQzD-26" target="H4kHcmEN_btRz03gtQzD-25">
          <mxGeometry relative="1" as="geometry" />
        </mxCell>
        <mxCell id="H4kHcmEN_btRz03gtQzD-26" value="" style="rounded=0;whiteSpace=wrap;html=1;strokeWidth=1;fontSize=14;fontColor=#000000;align=center;dashed=1;" vertex="1" parent="w93WZqZ1Jj-PsuHGOYY3-1">
          <mxGeometry x="1100" y="410" width="120" height="140" as="geometry" />
        </mxCell>
        <mxCell id="H4kHcmEN_btRz03gtQzD-27" value="查询活动" style="whiteSpace=wrap;html=1;strokeWidth=1;fontSize=14;fontColor=#000000;align=center;" vertex="1" parent="w93WZqZ1Jj-PsuHGOYY3-1">
          <mxGeometry x="1117.5" y="425" width="85" height="30" as="geometry" />
        </mxCell>
        <mxCell id="H4kHcmEN_btRz03gtQzD-28" value="查询算法" style="whiteSpace=wrap;html=1;strokeWidth=1;fontSize=14;fontColor=#000000;align=center;" vertex="1" parent="w93WZqZ1Jj-PsuHGOYY3-1">
          <mxGeometry x="1117.5" y="470" width="85" height="30" as="geometry" />
        </mxCell>
        <mxCell id="H4kHcmEN_btRz03gtQzD-30" value="C端算法" style="rounded=0;whiteSpace=wrap;html=1;strokeWidth=1;fontSize=20;fontColor=#ffffff;align=center;fontStyle=1;fillColor=#1ba1e2;strokeColor=#006EAF;" vertex="1" parent="w93WZqZ1Jj-PsuHGOYY3-1">
          <mxGeometry x="920" y="60" width="140" height="40" as="geometry" />
        </mxCell>
        <mxCell id="H4kHcmEN_btRz03gtQzD-38" style="edgeStyle=orthogonalEdgeStyle;rounded=0;orthogonalLoop=1;jettySize=auto;html=1;exitX=1;exitY=0.5;exitDx=0;exitDy=0;entryX=0;entryY=0.75;entryDx=0;entryDy=0;dashed=1;fontSize=14;fontColor=#000000;" edge="1" parent="w93WZqZ1Jj-PsuHGOYY3-1" source="H4kHcmEN_btRz03gtQzD-31" target="H4kHcmEN_btRz03gtQzD-26">
          <mxGeometry relative="1" as="geometry" />
        </mxCell>
        <mxCell id="H4kHcmEN_btRz03gtQzD-31" value="计算撬动金额" style="whiteSpace=wrap;html=1;strokeWidth=1;fontSize=14;fontColor=#000000;align=center;" vertex="1" parent="w93WZqZ1Jj-PsuHGOYY3-1">
          <mxGeometry x="943.75" y="500" width="92.5" height="30" as="geometry" />
        </mxCell>
        <mxCell id="H4kHcmEN_btRz03gtQzD-36" style="edgeStyle=orthogonalEdgeStyle;rounded=0;orthogonalLoop=1;jettySize=auto;html=1;exitX=1;exitY=0.5;exitDx=0;exitDy=0;entryX=0;entryY=0.25;entryDx=0;entryDy=0;dashed=1;fontSize=14;fontColor=#000000;" edge="1" parent="w93WZqZ1Jj-PsuHGOYY3-1" source="H4kHcmEN_btRz03gtQzD-34" target="H4kHcmEN_btRz03gtQzD-26">
          <mxGeometry relative="1" as="geometry" />
        </mxCell>
        <mxCell id="H4kHcmEN_btRz03gtQzD-68" style="edgeStyle=orthogonalEdgeStyle;rounded=0;orthogonalLoop=1;jettySize=auto;html=1;exitX=0.5;exitY=1;exitDx=0;exitDy=0;entryX=1;entryY=0.25;entryDx=0;entryDy=0;dashed=1;fontSize=14;fontColor=#000000;" edge="1" parent="w93WZqZ1Jj-PsuHGOYY3-1" source="H4kHcmEN_btRz03gtQzD-34" target="H4kHcmEN_btRz03gtQzD-51">
          <mxGeometry relative="1" as="geometry" />
        </mxCell>
        <mxCell id="H4kHcmEN_btRz03gtQzD-34" value="活动查询" style="whiteSpace=wrap;html=1;strokeWidth=1;fontSize=14;fontColor=#000000;align=center;" vertex="1" parent="w93WZqZ1Jj-PsuHGOYY3-1">
          <mxGeometry x="777.5" y="430" width="85" height="30" as="geometry" />
        </mxCell>
        <mxCell id="H4kHcmEN_btRz03gtQzD-47" style="edgeStyle=orthogonalEdgeStyle;rounded=0;orthogonalLoop=1;jettySize=auto;html=1;exitX=1;exitY=0.5;exitDx=0;exitDy=0;entryX=0.5;entryY=0;entryDx=0;entryDy=0;dashed=1;fontSize=14;fontColor=#000000;" edge="1" parent="w93WZqZ1Jj-PsuHGOYY3-1" source="H4kHcmEN_btRz03gtQzD-40" target="H4kHcmEN_btRz03gtQzD-43">
          <mxGeometry relative="1" as="geometry" />
        </mxCell>
        <mxCell id="H4kHcmEN_btRz03gtQzD-40" value="&lt;b&gt;&lt;font style=&quot;font-size: 18px&quot;&gt;5. 发起交易&lt;/font&gt;&lt;/b&gt;&lt;br&gt;提交订单&lt;br&gt;订单支付" style="rounded=0;whiteSpace=wrap;html=1;strokeWidth=1;fontSize=14;fontColor=#000000;align=center;verticalAlign=top;" vertex="1" parent="w93WZqZ1Jj-PsuHGOYY3-1">
          <mxGeometry x="1440" y="540" width="120" height="120" as="geometry" />
        </mxCell>
        <mxCell id="H4kHcmEN_btRz03gtQzD-42" value="裁剪结果" style="whiteSpace=wrap;html=1;strokeWidth=1;fontSize=14;fontColor=#000000;align=center;" vertex="1" parent="w93WZqZ1Jj-PsuHGOYY3-1">
          <mxGeometry x="1117.5" y="510" width="85" height="30" as="geometry" />
        </mxCell>
        <mxCell id="H4kHcmEN_btRz03gtQzD-50" style="edgeStyle=orthogonalEdgeStyle;rounded=0;orthogonalLoop=1;jettySize=auto;html=1;exitX=1;exitY=0.5;exitDx=0;exitDy=0;entryX=0;entryY=0.5;entryDx=0;entryDy=0;dashed=1;fontSize=14;fontColor=#000000;" edge="1" parent="w93WZqZ1Jj-PsuHGOYY3-1" source="H4kHcmEN_btRz03gtQzD-43" target="H4kHcmEN_btRz03gtQzD-49">
          <mxGeometry relative="1" as="geometry" />
        </mxCell>
        <mxCell id="H4kHcmEN_btRz03gtQzD-56" value="到达账期" style="edgeLabel;html=1;align=center;verticalAlign=middle;resizable=0;points=[];fontSize=14;fontColor=#000000;" vertex="1" connectable="0" parent="H4kHcmEN_btRz03gtQzD-50">
          <mxGeometry x="-0.0839" y="3" relative="1" as="geometry">
            <mxPoint x="-1" y="-12" as="offset" />
          </mxGeometry>
        </mxCell>
        <mxCell id="H4kHcmEN_btRz03gtQzD-52" style="edgeStyle=orthogonalEdgeStyle;rounded=0;orthogonalLoop=1;jettySize=auto;html=1;exitX=0;exitY=0.75;exitDx=0;exitDy=0;entryX=1;entryY=0.5;entryDx=0;entryDy=0;dashed=1;fontSize=14;fontColor=#000000;" edge="1" parent="w93WZqZ1Jj-PsuHGOYY3-1" source="H4kHcmEN_btRz03gtQzD-43" target="H4kHcmEN_btRz03gtQzD-60">
          <mxGeometry relative="1" as="geometry" />
        </mxCell>
        <mxCell id="H4kHcmEN_btRz03gtQzD-53" value="MQ消息" style="edgeLabel;html=1;align=center;verticalAlign=middle;resizable=0;points=[];fontSize=14;fontColor=#000000;" vertex="1" connectable="0" parent="H4kHcmEN_btRz03gtQzD-52">
          <mxGeometry x="-0.1682" y="6" relative="1" as="geometry">
            <mxPoint x="-1.67" y="-21" as="offset" />
          </mxGeometry>
        </mxCell>
        <mxCell id="H4kHcmEN_btRz03gtQzD-43" value="&lt;b&gt;&lt;font style=&quot;font-size: 18px&quot;&gt;6. 清结算&lt;/font&gt;&lt;/b&gt;&lt;br&gt;生成结算单&lt;br&gt;账期计算&lt;br&gt;清分" style="rounded=0;whiteSpace=wrap;html=1;strokeWidth=1;fontSize=14;fontColor=#000000;align=center;verticalAlign=top;" vertex="1" parent="w93WZqZ1Jj-PsuHGOYY3-1">
          <mxGeometry x="1610" y="660" width="120" height="120" as="geometry" />
        </mxCell>
        <mxCell id="H4kHcmEN_btRz03gtQzD-49" value="资金调拨" style="whiteSpace=wrap;html=1;strokeWidth=1;fontSize=14;fontColor=#000000;align=center;" vertex="1" parent="w93WZqZ1Jj-PsuHGOYY3-1">
          <mxGeometry x="1797.5" y="705" width="85" height="30" as="geometry" />
        </mxCell>
        <mxCell id="H4kHcmEN_btRz03gtQzD-64" style="edgeStyle=orthogonalEdgeStyle;rounded=0;orthogonalLoop=1;jettySize=auto;html=1;exitX=0.5;exitY=1;exitDx=0;exitDy=0;entryX=0.5;entryY=0;entryDx=0;entryDy=0;dashed=1;fontSize=14;fontColor=#000000;" edge="1" parent="w93WZqZ1Jj-PsuHGOYY3-1" source="H4kHcmEN_btRz03gtQzD-51" target="H4kHcmEN_btRz03gtQzD-62">
          <mxGeometry relative="1" as="geometry" />
        </mxCell>
        <mxCell id="H4kHcmEN_btRz03gtQzD-51" value="&lt;b&gt;&lt;font style=&quot;font-size: 18px&quot;&gt;7. CPC充值&lt;/font&gt;&lt;/b&gt;&lt;br&gt;查询订单&lt;br&gt;查询活动&lt;br&gt;查询&lt;br&gt;账期查询&lt;br&gt;cpc充值" style="rounded=0;whiteSpace=wrap;html=1;strokeWidth=1;fontSize=14;fontColor=#000000;align=center;verticalAlign=top;" vertex="1" parent="w93WZqZ1Jj-PsuHGOYY3-1">
          <mxGeometry x="423" y="820" width="120" height="120" as="geometry" />
        </mxCell>
        <mxCell id="H4kHcmEN_btRz03gtQzD-59" style="edgeStyle=orthogonalEdgeStyle;rounded=0;orthogonalLoop=1;jettySize=auto;html=1;exitX=1;exitY=0.5;exitDx=0;exitDy=0;entryX=0;entryY=0.5;entryDx=0;entryDy=0;dashed=1;fontSize=14;fontColor=#000000;" edge="1" parent="w93WZqZ1Jj-PsuHGOYY3-1" source="H4kHcmEN_btRz03gtQzD-57" target="H4kHcmEN_btRz03gtQzD-40">
          <mxGeometry relative="1" as="geometry" />
        </mxCell>
        <mxCell id="H4kHcmEN_btRz03gtQzD-57" value="算价" style="whiteSpace=wrap;html=1;strokeWidth=1;fontSize=14;fontColor=#000000;align=center;" vertex="1" parent="w93WZqZ1Jj-PsuHGOYY3-1">
          <mxGeometry x="1117.5" y="585" width="85" height="30" as="geometry" />
        </mxCell>
        <mxCell id="H4kHcmEN_btRz03gtQzD-61" style="edgeStyle=orthogonalEdgeStyle;rounded=0;orthogonalLoop=1;jettySize=auto;html=1;exitX=0.5;exitY=1;exitDx=0;exitDy=0;entryX=0.5;entryY=0;entryDx=0;entryDy=0;dashed=1;fontSize=14;fontColor=#000000;" edge="1" parent="w93WZqZ1Jj-PsuHGOYY3-1" source="H4kHcmEN_btRz03gtQzD-60" target="H4kHcmEN_btRz03gtQzD-51">
          <mxGeometry relative="1" as="geometry" />
        </mxCell>
        <mxCell id="H4kHcmEN_btRz03gtQzD-60" value="落地数据" style="whiteSpace=wrap;html=1;strokeWidth=1;fontSize=14;fontColor=#000000;align=center;" vertex="1" parent="w93WZqZ1Jj-PsuHGOYY3-1">
          <mxGeometry x="441.75" y="735" width="82.5" height="30" as="geometry" />
        </mxCell>
        <mxCell id="H4kHcmEN_btRz03gtQzD-62" value="充值" style="whiteSpace=wrap;html=1;strokeWidth=1;fontSize=14;fontColor=#000000;align=center;" vertex="1" parent="w93WZqZ1Jj-PsuHGOYY3-1">
          <mxGeometry x="441.75" y="990" width="82.5" height="30" as="geometry" />
        </mxCell>
        <mxCell id="H4kHcmEN_btRz03gtQzD-66" style="edgeStyle=orthogonalEdgeStyle;rounded=0;orthogonalLoop=1;jettySize=auto;html=1;exitX=1;exitY=0.5;exitDx=0;exitDy=0;entryX=0;entryY=0.25;entryDx=0;entryDy=0;dashed=1;fontSize=14;fontColor=#000000;" edge="1" parent="w93WZqZ1Jj-PsuHGOYY3-1" source="H4kHcmEN_btRz03gtQzD-65" target="H4kHcmEN_btRz03gtQzD-43">
          <mxGeometry relative="1" as="geometry" />
        </mxCell>
        <mxCell id="H4kHcmEN_btRz03gtQzD-67" style="edgeStyle=orthogonalEdgeStyle;rounded=0;orthogonalLoop=1;jettySize=auto;html=1;exitX=0.5;exitY=1;exitDx=0;exitDy=0;entryX=1;entryY=0.5;entryDx=0;entryDy=0;dashed=1;fontSize=14;fontColor=#000000;" edge="1" parent="w93WZqZ1Jj-PsuHGOYY3-1" source="H4kHcmEN_btRz03gtQzD-65" target="H4kHcmEN_btRz03gtQzD-51">
          <mxGeometry relative="1" as="geometry" />
        </mxCell>
        <mxCell id="H4kHcmEN_btRz03gtQzD-65" value="订单查询" style="whiteSpace=wrap;html=1;strokeWidth=1;fontSize=14;fontColor=#000000;align=center;" vertex="1" parent="w93WZqZ1Jj-PsuHGOYY3-1">
          <mxGeometry x="1457.5" y="675" width="85" height="30" as="geometry" />
        </mxCell>
        <mxCell id="H4kHcmEN_btRz03gtQzD-70" style="edgeStyle=orthogonalEdgeStyle;rounded=0;orthogonalLoop=1;jettySize=auto;html=1;exitX=0;exitY=0.5;exitDx=0;exitDy=0;entryX=1;entryY=0.75;entryDx=0;entryDy=0;dashed=1;fontSize=14;fontColor=#000000;" edge="1" parent="w93WZqZ1Jj-PsuHGOYY3-1" source="H4kHcmEN_btRz03gtQzD-69" target="H4kHcmEN_btRz03gtQzD-51">
          <mxGeometry relative="1" as="geometry" />
        </mxCell>
        <mxCell id="H4kHcmEN_btRz03gtQzD-69" value="账期查询" style="whiteSpace=wrap;html=1;strokeWidth=1;fontSize=14;fontColor=#000000;align=center;" vertex="1" parent="w93WZqZ1Jj-PsuHGOYY3-1">
          <mxGeometry x="1627.5" y="895" width="85" height="30" as="geometry" />
        </mxCell>
      </root>
    </mxGraphModel>
  </diagram>
  <diagram id="nyQZx2lGXlTH8MIswvq5" name="活动创建页">
    <mxGraphModel dx="828" dy="461" grid="1" gridSize="10" guides="1" tooltips="1" connect="1" arrows="1" fold="1" page="1" pageScale="1" pageWidth="827" pageHeight="1169" math="0" shadow="0">
      <root>
        <mxCell id="b_6GR157MkDsjrJIahxN-0" />
        <mxCell id="b_6GR157MkDsjrJIahxN-1" parent="b_6GR157MkDsjrJIahxN-0" />
        <mxCell id="i2N_QVe7EHim7uN9NsiP-49" style="edgeStyle=orthogonalEdgeStyle;rounded=0;orthogonalLoop=1;jettySize=auto;html=1;exitX=0.5;exitY=1;exitDx=0;exitDy=0;fontSize=16;fontColor=#000000;dashed=1;" edge="1" parent="b_6GR157MkDsjrJIahxN-1" source="i2N_QVe7EHim7uN9NsiP-50" target="i2N_QVe7EHim7uN9NsiP-52">
          <mxGeometry relative="1" as="geometry" />
        </mxCell>
        <mxCell id="i2N_QVe7EHim7uN9NsiP-50" value="Napos&lt;br&gt;活动创建页" style="rounded=1;whiteSpace=wrap;html=1;fillColor=#1ba1e2;strokeColor=#006EAF;fontColor=#000000;fontSize=16;" vertex="1" parent="b_6GR157MkDsjrJIahxN-1">
          <mxGeometry x="215" y="195" width="150" height="80" as="geometry" />
        </mxCell>
        <mxCell id="i2N_QVe7EHim7uN9NsiP-51" style="edgeStyle=orthogonalEdgeStyle;rounded=0;orthogonalLoop=1;jettySize=auto;html=1;exitX=0.5;exitY=1;exitDx=0;exitDy=0;dashed=1;fontSize=16;fontColor=#000000;" edge="1" parent="b_6GR157MkDsjrJIahxN-1" source="i2N_QVe7EHim7uN9NsiP-52" target="i2N_QVe7EHim7uN9NsiP-55">
          <mxGeometry relative="1" as="geometry" />
        </mxCell>
        <mxCell id="i2N_QVe7EHim7uN9NsiP-52" value="玩法&lt;br&gt;play.doraemon" style="rounded=1;whiteSpace=wrap;html=1;fillColor=#1ba1e2;strokeColor=#006EAF;fontColor=#000000;fontSize=16;" vertex="1" parent="b_6GR157MkDsjrJIahxN-1">
          <mxGeometry x="220" y="310" width="140" height="50" as="geometry" />
        </mxCell>
        <mxCell id="i2N_QVe7EHim7uN9NsiP-53" style="edgeStyle=orthogonalEdgeStyle;rounded=0;orthogonalLoop=1;jettySize=auto;html=1;exitX=0.5;exitY=1;exitDx=0;exitDy=0;entryX=0.5;entryY=0;entryDx=0;entryDy=0;dashed=1;fontSize=14;fontColor=#000000;" edge="1" parent="b_6GR157MkDsjrJIahxN-1" source="i2N_QVe7EHim7uN9NsiP-55">
          <mxGeometry relative="1" as="geometry">
            <mxPoint x="440" y="556" as="targetPoint" />
          </mxGeometry>
        </mxCell>
        <mxCell id="i2N_QVe7EHim7uN9NsiP-54" value="上活动" style="edgeLabel;html=1;align=center;verticalAlign=middle;resizable=0;points=[];fontSize=14;fontColor=#000000;" vertex="1" connectable="0" parent="i2N_QVe7EHim7uN9NsiP-53">
          <mxGeometry x="-0.1364" y="2" relative="1" as="geometry">
            <mxPoint as="offset" />
          </mxGeometry>
        </mxCell>
        <mxCell id="i2N_QVe7EHim7uN9NsiP-55" value="保存玩法" style="rounded=1;whiteSpace=wrap;html=1;fillColor=#1ba1e2;strokeColor=#006EAF;fontColor=#000000;fontSize=16;" vertex="1" parent="b_6GR157MkDsjrJIahxN-1">
          <mxGeometry x="240" y="390" width="100" height="50" as="geometry" />
        </mxCell>
        <mxCell id="i2N_QVe7EHim7uN9NsiP-56" style="edgeStyle=orthogonalEdgeStyle;rounded=0;orthogonalLoop=1;jettySize=auto;html=1;exitX=1;exitY=0.75;exitDx=0;exitDy=0;entryX=0;entryY=0.5;entryDx=0;entryDy=0;fontSize=14;fontColor=#000000;dashed=1;" edge="1" parent="b_6GR157MkDsjrJIahxN-1" source="i2N_QVe7EHim7uN9NsiP-57" target="i2N_QVe7EHim7uN9NsiP-50">
          <mxGeometry relative="1" as="geometry" />
        </mxCell>
        <mxCell id="i2N_QVe7EHim7uN9NsiP-98" value="1.进入页面" style="edgeLabel;html=1;align=center;verticalAlign=middle;resizable=0;points=[];fontSize=14;fontColor=#000000;" vertex="1" connectable="0" parent="i2N_QVe7EHim7uN9NsiP-56">
          <mxGeometry x="-0.3354" relative="1" as="geometry">
            <mxPoint x="10" as="offset" />
          </mxGeometry>
        </mxCell>
        <mxCell id="i2N_QVe7EHim7uN9NsiP-57" value="&lt;br&gt;商户" style="shape=actor;whiteSpace=wrap;html=1;fillColor=#176FBD;fontSize=16;fontColor=#ffffff;strokeColor=#006EAF;" vertex="1" parent="b_6GR157MkDsjrJIahxN-1">
          <mxGeometry x="10" y="190" width="70" height="60" as="geometry" />
        </mxCell>
        <mxCell id="i2N_QVe7EHim7uN9NsiP-63" style="edgeStyle=orthogonalEdgeStyle;rounded=0;orthogonalLoop=1;jettySize=auto;html=1;exitX=0.5;exitY=1;exitDx=0;exitDy=0;entryX=0.5;entryY=0;entryDx=0;entryDy=0;dashed=1;fontSize=14;fontColor=#000000;" edge="1" parent="b_6GR157MkDsjrJIahxN-1" source="i2N_QVe7EHim7uN9NsiP-65" target="i2N_QVe7EHim7uN9NsiP-50">
          <mxGeometry relative="1" as="geometry" />
        </mxCell>
        <mxCell id="i2N_QVe7EHim7uN9NsiP-64" value="1.2 加载预算列表" style="text;html=1;align=center;verticalAlign=middle;resizable=0;points=[];labelBackgroundColor=#ffffff;fontSize=14;fontColor=#000000;" vertex="1" connectable="0" parent="i2N_QVe7EHim7uN9NsiP-63">
          <mxGeometry x="-0.7375" relative="1" as="geometry">
            <mxPoint y="1" as="offset" />
          </mxGeometry>
        </mxCell>
        <mxCell id="i2N_QVe7EHim7uN9NsiP-65" value="预算池" style="rounded=1;whiteSpace=wrap;html=1;fillColor=#bac8d3;strokeColor=#23445d;fontSize=16;" vertex="1" parent="b_6GR157MkDsjrJIahxN-1">
          <mxGeometry x="240" y="20" width="100" height="50" as="geometry" />
        </mxCell>
        <mxCell id="i2N_QVe7EHim7uN9NsiP-66" style="edgeStyle=orthogonalEdgeStyle;rounded=0;orthogonalLoop=1;jettySize=auto;html=1;exitX=0.5;exitY=1;exitDx=0;exitDy=0;entryX=0.5;entryY=0;entryDx=0;entryDy=0;dashed=1;fontSize=14;fontColor=#000000;" edge="1" parent="b_6GR157MkDsjrJIahxN-1" source="i2N_QVe7EHim7uN9NsiP-68" target="i2N_QVe7EHim7uN9NsiP-50">
          <mxGeometry relative="1" as="geometry" />
        </mxCell>
        <mxCell id="i2N_QVe7EHim7uN9NsiP-67" value="1.1 加载算法锚点" style="text;html=1;align=center;verticalAlign=middle;resizable=0;points=[];labelBackgroundColor=#ffffff;fontSize=14;fontColor=#000000;" vertex="1" connectable="0" parent="i2N_QVe7EHim7uN9NsiP-66">
          <mxGeometry x="-0.6133" y="-2" relative="1" as="geometry">
            <mxPoint x="2" y="-35" as="offset" />
          </mxGeometry>
        </mxCell>
        <mxCell id="i2N_QVe7EHim7uN9NsiP-68" value="B端算法" style="rounded=1;whiteSpace=wrap;html=1;fillColor=#bac8d3;strokeColor=#23445d;fontSize=16;" vertex="1" parent="b_6GR157MkDsjrJIahxN-1">
          <mxGeometry x="110" y="20" width="100" height="50" as="geometry" />
        </mxCell>
        <mxCell id="i2N_QVe7EHim7uN9NsiP-77" value="" style="rounded=0;whiteSpace=wrap;html=1;fillColor=none;fontSize=14;fontColor=#000000;dashed=1;" vertex="1" parent="b_6GR157MkDsjrJIahxN-1">
          <mxGeometry x="688" y="15" width="120" height="115" as="geometry" />
        </mxCell>
        <mxCell id="i2N_QVe7EHim7uN9NsiP-78" value="图例说明" style="text;html=1;align=center;verticalAlign=middle;resizable=0;points=[];autosize=1;fontSize=14;fontColor=#FF0000;" vertex="1" parent="b_6GR157MkDsjrJIahxN-1">
          <mxGeometry x="687" y="17" width="70" height="20" as="geometry" />
        </mxCell>
        <mxCell id="i2N_QVe7EHim7uN9NsiP-79" value="" style="rounded=1;whiteSpace=wrap;html=1;fillColor=#1ba1e2;strokeColor=#006EAF;fontColor=#000000;fontSize=16;" vertex="1" parent="b_6GR157MkDsjrJIahxN-1">
          <mxGeometry x="702" y="43.5" width="40" height="15" as="geometry" />
        </mxCell>
        <mxCell id="i2N_QVe7EHim7uN9NsiP-80" value="内部模块" style="text;html=1;align=center;verticalAlign=middle;resizable=0;points=[];autosize=1;fontSize=12;fontColor=#000000;" vertex="1" parent="b_6GR157MkDsjrJIahxN-1">
          <mxGeometry x="748" y="41" width="60" height="20" as="geometry" />
        </mxCell>
        <mxCell id="i2N_QVe7EHim7uN9NsiP-81" value="" style="rounded=1;whiteSpace=wrap;html=1;fillColor=#bac8d3;strokeColor=#23445d;fontSize=16;" vertex="1" parent="b_6GR157MkDsjrJIahxN-1">
          <mxGeometry x="702" y="65.5" width="40" height="15" as="geometry" />
        </mxCell>
        <mxCell id="i2N_QVe7EHim7uN9NsiP-82" value="外部系统" style="text;html=1;align=center;verticalAlign=middle;resizable=0;points=[];autosize=1;fontSize=12;fontColor=#000000;" vertex="1" parent="b_6GR157MkDsjrJIahxN-1">
          <mxGeometry x="748" y="63" width="60" height="20" as="geometry" />
        </mxCell>
        <mxCell id="i2N_QVe7EHim7uN9NsiP-83" value="" style="endArrow=classic;html=1;dashed=1;fontSize=12;fontColor=#000000;" edge="1" parent="b_6GR157MkDsjrJIahxN-1">
          <mxGeometry width="50" height="50" relative="1" as="geometry">
            <mxPoint x="704" y="94" as="sourcePoint" />
            <mxPoint x="744" y="94" as="targetPoint" />
          </mxGeometry>
        </mxCell>
        <mxCell id="i2N_QVe7EHim7uN9NsiP-84" value="依赖" style="text;html=1;align=center;verticalAlign=middle;resizable=0;points=[];autosize=1;fontSize=12;fontColor=#000000;" vertex="1" parent="b_6GR157MkDsjrJIahxN-1">
          <mxGeometry x="758" y="83" width="40" height="20" as="geometry" />
        </mxCell>
        <mxCell id="i2N_QVe7EHim7uN9NsiP-85" value="" style="shape=actor;whiteSpace=wrap;html=1;fillColor=#176FBD;fontSize=16;fontColor=#ffffff;strokeColor=#006EAF;" vertex="1" parent="b_6GR157MkDsjrJIahxN-1">
          <mxGeometry x="711.5" y="105" width="21" height="13" as="geometry" />
        </mxCell>
        <mxCell id="i2N_QVe7EHim7uN9NsiP-86" value="角色" style="text;html=1;align=center;verticalAlign=middle;resizable=0;points=[];autosize=1;fontSize=12;fontColor=#000000;" vertex="1" parent="b_6GR157MkDsjrJIahxN-1">
          <mxGeometry x="758" y="101.5" width="40" height="20" as="geometry" />
        </mxCell>
        <mxCell id="i2N_QVe7EHim7uN9NsiP-87" value="底层" style="rounded=1;whiteSpace=wrap;html=1;fillColor=#bac8d3;strokeColor=#23445d;fontSize=16;" vertex="1" parent="b_6GR157MkDsjrJIahxN-1">
          <mxGeometry x="390" y="530" width="100" height="50" as="geometry" />
        </mxCell>
        <mxCell id="i2N_QVe7EHim7uN9NsiP-96" style="edgeStyle=orthogonalEdgeStyle;rounded=0;orthogonalLoop=1;jettySize=auto;html=1;exitX=0.5;exitY=1;exitDx=0;exitDy=0;entryX=0.5;entryY=0;entryDx=0;entryDy=0;dashed=1;fontSize=14;fontColor=#000000;" edge="1" parent="b_6GR157MkDsjrJIahxN-1" source="i2N_QVe7EHim7uN9NsiP-90" target="i2N_QVe7EHim7uN9NsiP-50">
          <mxGeometry relative="1" as="geometry" />
        </mxCell>
        <mxCell id="i2N_QVe7EHim7uN9NsiP-97" value="1.3 加载服务协议" style="edgeLabel;html=1;align=center;verticalAlign=middle;resizable=0;points=[];fontSize=14;fontColor=#000000;" vertex="1" connectable="0" parent="i2N_QVe7EHim7uN9NsiP-96">
          <mxGeometry x="-0.8528" y="-4" relative="1" as="geometry">
            <mxPoint x="4" y="1" as="offset" />
          </mxGeometry>
        </mxCell>
        <mxCell id="i2N_QVe7EHim7uN9NsiP-90" value="CPC" style="rounded=1;whiteSpace=wrap;html=1;fillColor=#bac8d3;strokeColor=#23445d;fontSize=16;" vertex="1" parent="b_6GR157MkDsjrJIahxN-1">
          <mxGeometry x="370" y="20" width="100" height="50" as="geometry" />
        </mxCell>
        <mxCell id="i2N_QVe7EHim7uN9NsiP-99" value="SOA接口" style="text;html=1;align=center;verticalAlign=middle;resizable=0;points=[];autosize=1;fontSize=14;fontColor=#000000;fontStyle=1" vertex="1" parent="b_6GR157MkDsjrJIahxN-1">
          <mxGeometry x="255" y="160" width="70" height="20" as="geometry" />
        </mxCell>
      </root>
    </mxGraphModel>
  </diagram>
</mxfile>
